<?xml version="1.0" encoding="utf-8"?>
<!-- Generator: Adobe Illustrator 24.0.0, SVG Export Plug-In . SVG Version: 6.00 Build 0)  -->
<svg version="1.1" id="Layer_1" xmlns="http://www.w3.org/2000/svg" xmlns:xlink="http://www.w3.org/1999/xlink" x="0px" y="0px"
	 viewBox="0 0 373.1 103" style="enable-background:new 0 0 373.1 103;" xml:space="preserve">
<style type="text/css">
	.st0{fill:#098178;}
	.st1{fill:#1A1A1A;}
</style>

<g transform="translate(0.000000,407.000000) scale(0.100000,-0.100000)"
fill="#000000" stroke="none">
<path d="M330 4067 c0 -2 29 -65 64 -139 49 -101 73 -141 100 -161 23 -18 40
-43 51 -77 10 -29 27 -57 40 -66 13 -9 35 -44 50 -82 15 -37 35 -75 46 -85 10
-10 19 -29 19 -42 0 -37 28 -100 54 -122 15 -13 26 -37 30 -66 4 -25 19 -63
33 -84 21 -29 27 -52 29 -96 1 -36 9 -67 20 -85 10 -15 21 -56 25 -90 4 -44
14 -74 30 -95 17 -23 25 -51 30 -98 4 -46 13 -75 27 -94 13 -17 22 -42 22 -64
1 -39 15 -63 43 -74 9 -3 17 -13 17 -22 0 -23 19 -18 43 11 96 116 144 152
188 141 23 -6 69 -76 69 -104 0 -7 -13 -28 -30 -46 -29 -34 -40 -67 -21 -67
19 0 23 -61 6 -113 -23 -75 -43 -96 -104 -112 -29 -7 -63 -22 -75 -33 -11 -10
-40 -27 -63 -37 -47 -20 -52 -29 -24 -44 16 -9 18 -21 17 -82 -1 -64 -4 -73
-24 -82 -13 -6 -22 -19 -22 -33 0 -15 -12 -30 -36 -45 -29 -17 -34 -26 -29
-43 16 -51 17 -77 1 -101 -26 -39 -21 -55 16 -53 25 2 33 -1 36 -16 4 -17 -1
-18 -47 -13 -85 10 -142 -23 -106 -63 8 -9 15 -26 15 -38 0 -25 -52 -80 -98
-104 -29 -16 -33 -22 -27 -46 4 -20 -3 -45 -25 -90 -35 -72 -37 -88 -10 -95
14 -3 20 -14 20 -32 0 -17 9 -34 25 -47 14 -11 25 -28 25 -38 0 -30 16 -32 34
-5 20 30 57 41 86 25 18 -10 26 -8 45 10 16 15 30 20 44 15 28 -9 63 31 56 62
-4 17 1 24 29 33 18 6 42 20 51 30 11 12 31 20 50 20 38 0 48 17 40 64 -6 27
-2 35 27 56 21 15 43 23 61 21 31 -3 97 40 97 65 0 21 -23 17 -76 -11 -26 -14
-49 -23 -52 -20 -7 6 21 46 58 83 27 28 38 32 85 32 44 0 53 -3 58 -20 6 -22
23 -25 47 -10 12 8 13 13 3 29 -11 17 -10 22 5 31 13 9 8 10 -23 5 -22 -3 -48
-8 -57 -11 -33 -10 -18 16 44 77 81 80 94 84 174 57 35 -13 64 -26 64 -30 0
-11 -56 -38 -80 -38 -25 0 -104 -39 -96 -47 26 -27 214 42 202 73 -7 19 10 9
58 -33 42 -37 45 -51 14 -57 -98 -20 -157 -27 -199 -25 -71 4 -81 -13 -30 -47
l42 -27 -28 -18 c-33 -22 -201 -79 -231 -79 -34 0 -34 -17 -1 -41 30 -21 30
-22 12 -40 -19 -19 -175 -89 -199 -89 -22 0 -17 -27 8 -44 35 -24 10 -39 -95
-56 -83 -13 -92 -17 -95 -38 -3 -18 2 -23 27 -28 36 -7 39 -19 12 -34 -31 -16
-76 -12 -104 10 -14 11 -34 20 -45 20 -28 0 -38 -36 -18 -59 25 -27 21 -55 -6
-47 -13 3 -31 6 -41 6 -11 0 -24 13 -33 35 -16 38 -34 47 -34 16 0 -29 11 -51
25 -51 7 0 23 -8 35 -18 17 -13 21 -24 16 -40 -11 -32 -38 -43 -111 -43 -60
-1 -66 -3 -71 -25 -8 -33 -29 -30 -97 11 -62 37 -64 36 -69 -25 -3 -32 -5 -35
-33 -32 -16 2 -41 11 -55 21 -21 16 -25 26 -25 74 0 49 -4 59 -37 96 -38 42
-71 53 -82 25 -9 -23 -10 -22 35 -63 36 -33 42 -44 45 -86 2 -30 9 -52 18 -57
33 -18 47 -40 36 -53 -19 -22 -87 -29 -114 -11 -15 9 -36 13 -57 10 -40 -7
-108 20 -157 60 l-32 28 -20 -47 c-11 -26 -20 -58 -20 -71 l0 -24 133 0 c72 0
193 7 268 14 118 13 147 19 230 54 52 22 155 66 229 97 82 34 156 73 188 98
29 23 72 55 95 71 23 16 74 57 112 91 80 70 107 87 128 79 9 -3 24 -42 38 -97
50 -203 104 -344 188 -484 32 -54 70 -119 84 -144 44 -77 186 -271 240 -326
l51 -53 208 0 c198 0 209 1 229 21 23 23 67 19 82 -7 6 -11 43 -14 189 -14
l180 0 -5 22 c-2 13 -8 32 -12 43 -8 19 -8 19 12 3 11 -10 28 -18 37 -18 14 0
17 -6 14 -25 -4 -20 -1 -25 16 -25 12 0 27 9 34 20 15 25 40 25 72 0 30 -23
155 -30 148 -7 -4 11 -74 50 -110 61 -15 4 -16 10 -7 36 6 16 17 30 25 30 15
0 76 -39 82 -52 2 -5 10 -8 18 -8 18 0 18 29 -1 36 -8 3 -17 15 -21 26 -3 11
-12 17 -20 14 -8 -3 -14 1 -14 9 0 8 -4 15 -10 15 -5 0 -10 -4 -10 -10 0 -19
-32 -10 -51 14 -12 15 -32 26 -52 28 -26 2 -31 7 -29 23 3 21 -30 65 -49 65
-5 0 -12 -7 -15 -15 -8 -19 -19 -19 -39 2 -13 13 -15 26 -10 62 4 25 9 48 11
50 5 5 85 -49 107 -73 9 -11 20 -16 25 -12 8 9 -53 65 -95 86 -15 8 -34 21
-42 28 -8 8 -26 12 -39 9 -14 -3 -36 0 -48 5 -15 7 -28 7 -40 0 -16 -9 -13
-12 20 -26 21 -9 46 -16 55 -16 27 0 44 -17 37 -36 -5 -13 -9 -15 -18 -6 -19
19 -29 14 -22 -12 8 -33 -13 -43 -28 -12 -7 17 -19 26 -34 26 -15 0 -24 8 -28
27 -8 28 -47 65 -80 73 -26 7 -33 52 -12 69 13 11 21 9 47 -13 17 -14 35 -26
40 -26 12 0 12 27 -1 35 -5 3 -10 23 -10 44 0 45 28 76 59 66 18 -5 21 -2 21
19 0 20 -8 29 -37 43 -21 9 -55 17 -76 17 -32 1 -41 6 -55 31 -9 17 -21 33
-27 37 -30 22 -34 -10 -5 -37 24 -21 27 -47 5 -39 -26 10 -17 -6 25 -45 23
-21 40 -46 40 -59 0 -12 6 -22 14 -22 7 0 16 -9 19 -21 4 -13 1 -18 -6 -15 -7
3 -20 9 -29 12 -11 4 -18 16 -18 30 0 19 -5 24 -24 24 -18 0 -27 8 -35 31 -6
18 -11 40 -11 50 0 17 -11 24 -24 17 -3 -2 -16 8 -29 21 -22 20 -24 27 -15 47
6 13 19 24 30 24 33 0 22 39 -16 57 l-35 16 22 23 c12 13 27 24 34 24 7 0 10
7 7 15 -3 8 1 22 10 30 9 9 16 27 16 41 0 35 12 30 50 -21 34 -46 44 -52 54
-36 9 13 46 1 46 -15 0 -8 7 -14 15 -14 8 0 15 -6 15 -12 1 -9 5 -8 13 3 16
21 73 32 98 19 15 -8 19 -7 19 4 0 24 20 29 40 11 40 -36 47 14 8 64 -42 55 1
56 56 2 l39 -38 -24 -32 -23 -31 24 -25 c13 -13 32 -27 42 -31 10 -3 16 -9 13
-14 -6 -9 25 -23 33 -15 3 3 0 5 -6 5 -7 0 -12 4 -12 8 0 5 14 7 30 4 22 -3
32 -11 36 -29 4 -15 12 -23 23 -21 27 5 24 37 -8 74 -17 19 -29 39 -26 45 10
15 45 10 45 -6 0 -8 13 -21 30 -30 16 -8 33 -21 37 -28 4 -7 22 -19 38 -26 37
-17 18 -26 -28 -13 -34 10 -35 9 -28 -17 9 -34 76 -80 121 -84 28 -2 36 -7 38
-25 2 -12 10 -22 18 -22 13 0 13 -2 2 -13 -7 -8 -24 -20 -38 -27 -24 -13 -23
-13 38 -42 35 -17 72 -43 84 -58 23 -31 38 -31 38 1 0 18 4 20 48 13 26 -3 43
-3 39 2 -4 4 -38 11 -74 15 -56 6 -71 11 -90 33 -31 36 -29 67 5 88 24 15 24
18 7 18 -12 0 -41 20 -65 45 l-44 45 32 0 c18 0 32 -4 32 -9 0 -12 95 -71 114
-71 7 0 19 -7 26 -15 11 -13 7 -15 -27 -15 -46 0 -57 -7 -39 -25 24 -24 115
-65 145 -65 16 0 33 -5 37 -11 4 -7 0 -9 -14 -5 -11 4 -23 2 -27 -4 -6 -9 -2
-12 28 -14 6 -1 15 -5 19 -10 3 -5 18 -2 32 8 l27 17 -51 40 c-48 38 -50 42
-36 58 15 16 13 20 -24 55 -43 40 -55 69 -17 43 48 -35 108 -66 139 -72 67
-15 64 -26 -4 -20 -40 3 -69 1 -73 -5 -6 -10 54 -41 147 -77 48 -18 46 -37 -3
-23 -25 7 -39 -2 -39 -25 0 -2 26 -13 57 -25 32 -12 64 -26 71 -32 7 -6 22
-12 35 -13 37 -4 38 -5 32 -15 -3 -6 2 -10 12 -11 10 0 26 -2 35 -4 15 -3 47
21 37 28 -2 2 -34 18 -71 36 -70 35 -75 40 -58 57 11 11 -3 28 -65 80 -18 16
-23 23 -12 20 10 -3 27 -6 38 -6 10 0 18 -5 16 -12 -1 -6 12 -16 28 -21 17 -5
40 -14 53 -20 12 -6 40 -11 60 -11 21 -1 49 -9 63 -18 23 -17 21 -18 -66 -12
-72 5 -88 4 -78 -6 12 -13 75 -38 168 -67 73 -22 76 -33 9 -26 -32 3 -56 2
-52 -2 13 -13 121 -55 160 -61 21 -4 35 -11 32 -16 -4 -5 2 -9 12 -8 40 5 48
-1 19 -15 l-30 -13 36 -1 c22 -1 39 -7 42 -15 7 -19 67 -50 75 -40 4 4 2 9 -4
11 -29 10 -48 33 -49 58 0 24 -8 30 -75 57 -88 35 -86 34 -71 52 10 11 6 18
-16 34 -15 11 -38 22 -50 26 -34 11 -37 35 -4 34 15 -1 36 4 47 10 15 9 15 11
3 12 -8 0 -30 11 -49 25 -32 24 -33 25 -9 25 13 0 42 -7 65 -14 22 -8 69 -18
104 -22 36 -4 71 -14 80 -22 13 -14 6 -15 -66 -10 -64 5 -89 2 -120 -11 l-39
-18 30 -6 c17 -4 63 -11 103 -17 41 -6 83 -15 94 -21 11 -6 22 -8 25 -5 3 2
15 1 27 -4 13 -4 29 -4 39 1 18 11 23 29 8 29 -6 0 -27 10 -48 22 -28 17 -33
24 -20 26 22 4 22 4 -8 48 -14 20 -24 38 -23 40 2 1 30 -4 63 -11 l60 -13 -45
-2 -45 -2 40 -9 c22 -5 60 -14 85 -20 25 -6 50 -12 57 -13 7 -1 16 -6 20 -10
4 -5 -34 -6 -84 -2 -51 4 -93 4 -93 1 0 -13 57 -26 134 -31 90 -6 106 -9 106
-22 0 -5 -38 -12 -85 -14 -60 -3 -90 -9 -101 -20 -15 -15 -14 -16 12 -21 16
-3 76 -7 134 -9 58 -2 110 -7 116 -13 20 -17 -26 -34 -93 -35 -61 0 -86 -15
-40 -24 12 -2 47 -10 77 -16 30 -7 60 -11 65 -10 6 1 25 2 43 1 43 -1 45 -31
2 -31 -16 0 -30 -4 -30 -8 0 -12 117 -32 189 -32 33 0 61 -4 61 -10 0 -5 8 -6
17 -3 16 6 16 5 4 -10 -12 -15 -11 -17 7 -17 12 0 26 8 31 18 9 17 3 21 -58
35 -38 10 -78 17 -89 17 -31 0 -51 10 -46 24 5 13 -55 50 -101 61 l-30 7 28
20 28 20 -51 24 c-27 13 -50 24 -50 26 0 2 59 2 131 2 85 -1 135 -6 142 -13
22 -22 -32 -37 -120 -34 -7 1 -13 -3 -13 -9 0 -5 -5 -6 -11 -2 -7 4 -10 1 -7
-7 7 -20 185 -17 198 2 10 14 50 -2 50 -20 0 -26 -21 -41 -59 -42 -20 -1 -47
-4 -61 -8 -47 -13 0 -24 109 -27 123 -3 124 -3 91 -15 -19 -7 -15 -8 20 -5 44
4 44 4 13 -6 -68 -22 -26 -36 117 -38 77 -1 107 -11 95 -30 -2 -3 12 -4 31 -2
24 3 34 9 34 22 0 14 -15 19 -82 28 -46 7 -95 12 -110 12 -21 0 -28 5 -28 19
0 14 -14 22 -58 35 -32 9 -65 16 -74 16 -9 0 -19 7 -22 16 -3 9 -2 12 5 9 5
-4 17 -1 25 6 14 11 11 15 -18 30 -18 10 -44 18 -57 19 -16 0 -21 4 -18 14 7
18 -9 32 -47 42 -16 4 -31 15 -33 25 -4 14 -15 19 -37 19 -17 0 -47 4 -66 9
-61 16 -127 22 -110 11 13 -8 12 -10 -5 -11 -11 -1 0 -5 25 -10 25 -5 55 -7
66 -4 27 6 86 -14 78 -26 -3 -5 -40 -9 -82 -8 -83 2 -148 25 -170 60 -11 17
-9 18 21 14 43 -6 -42 16 -188 49 -130 30 -349 101 -448 146 -35 16 -88 37
-118 47 -107 37 -402 234 -549 368 -31 27 -83 64 -115 82 -33 17 -93 64 -133
103 -41 38 -95 82 -120 97 -26 15 -60 38 -77 51 -30 25 -115 131 -115 144 0 4
123 7 273 7 149 -1 310 4 357 10 47 6 180 15 297 21 209 10 328 28 388 58 17
8 78 48 137 88 80 56 117 89 152 137 25 34 56 76 71 93 29 36 50 83 59 134 l7
35 -20 -25 c-11 -14 -21 -34 -21 -45 0 -12 -18 -40 -40 -65 -21 -24 -37 -47
-34 -51 7 -11 -96 -130 -107 -124 -5 4 -24 -8 -41 -25 -18 -17 -53 -36 -77
-42 -35 -9 -41 -13 -26 -18 18 -6 17 -8 -8 -25 -15 -9 -44 -23 -65 -30 -34
-12 -39 -12 -60 8 l-24 22 7 -27 c7 -27 6 -28 -31 -28 -62 0 -70 10 -50 59 19
48 20 59 5 44 -6 -6 -16 -32 -23 -59 l-12 -49 -47 -1 c-26 0 -50 -4 -54 -7
-10 -10 -52 -8 -73 3 -26 14 -33 55 -15 84 11 16 13 26 5 31 -15 9 -2 25 15
19 10 -4 12 0 8 15 -3 12 -11 21 -18 21 -27 0 -27 39 1 75 14 19 27 35 28 35
1 0 29 -5 62 -11 70 -13 104 -32 104 -60 0 -22 28 -69 40 -69 5 0 0 18 -11 40
-21 44 -25 95 -7 106 6 4 16 1 22 -7 6 -8 18 -15 26 -17 8 -2 21 -11 28 -20 7
-9 18 -16 23 -15 5 2 9 -2 9 -8 0 -6 6 -9 14 -6 16 6 30 -19 19 -35 -4 -7 -1
-8 7 -3 9 6 11 0 5 -24 -4 -20 -3 -31 4 -31 16 0 14 72 -3 111 -8 19 -28 45
-46 57 l-31 24 41 22 c23 12 47 31 52 41 8 13 7 16 -1 11 -6 -4 -11 -2 -11 3
0 6 -5 11 -11 11 -5 0 -7 -6 -3 -12 6 -10 5 -10 -7 -1 -10 8 -27 9 -51 4 -53
-12 -59 -18 -48 -47 13 -33 13 -34 -3 -34 -8 0 -22 8 -31 19 -16 18 -16 20 8
39 15 11 26 25 26 32 0 7 7 10 16 6 9 -4 13 -2 8 5 -4 8 1 9 16 4 16 -5 20 -4
16 4 -5 7 6 17 27 26 18 7 39 21 47 29 18 22 33 20 25 -4 -5 -15 0 -23 19 -32
29 -13 34 -28 9 -28 -9 0 -14 -3 -10 -6 3 -4 14 -3 24 1 30 13 55 16 48 5 -9
-15 8 -12 31 5 10 8 30 15 43 15 23 0 24 2 18 55 -3 31 -2 55 4 55 5 0 9 -5 9
-11 0 -5 4 -8 9 -5 5 3 15 -18 21 -47 7 -28 15 -56 17 -60 6 -11 28 21 36 51
5 23 -8 31 -16 10 -3 -7 -6 0 -6 15 -1 18 -5 26 -12 21 -7 -4 -9 0 -5 14 5 15
2 22 -11 25 -12 3 -7 6 12 7 46 4 109 -1 115 -8 3 -4 11 -8 18 -9 8 -2 12 11
12 41 0 52 -1 51 136 61 79 6 106 4 210 -20 564 -129 938 -261 1156 -406 l58
-38 0 141 c0 111 -3 139 -12 130 -18 -18 -38 -15 -59 11 -21 25 -24 50 -9 78
8 14 6 28 -9 56 -56 105 -59 121 -35 159 16 23 16 26 -2 39 -35 26 -38 24
-110 -82 -19 -28 -61 -2 -84 52 -16 37 -18 60 -14 123 7 102 19 136 56 168 25
20 29 27 17 35 -8 5 -19 9 -25 9 -36 0 -48 72 -20 115 20 31 20 51 0 59 -17 6
-31 -7 -55 -52 -10 -17 -10 -30 -3 -51 14 -35 5 -56 -40 -105 -20 -22 -36 -42
-36 -45 1 -4 14 -22 30 -41 35 -40 37 -57 10 -110 -11 -22 -20 -46 -20 -54 0
-8 20 -32 45 -54 43 -38 57 -73 35 -87 -5 -3 -14 -24 -20 -45 -13 -48 -25 -50
-48 -9 -9 17 -29 45 -44 62 -21 24 -28 42 -28 74 0 33 -4 43 -20 48 -23 7 -40
-1 -40 -18 0 -24 -35 -97 -47 -97 -6 0 -32 25 -58 55 -40 47 -46 59 -43 91 3
33 0 38 -25 46 -41 14 -54 5 -73 -56 -22 -70 -38 -71 -93 -10 -37 42 -40 49
-35 88 6 42 5 43 -32 63 -31 16 -40 26 -42 52 -3 30 12 72 40 112 6 9 9 23 6
30 -3 8 -6 19 -8 24 -1 6 -5 15 -10 20 -4 6 -11 28 -15 50 -3 21 -18 52 -31
68 -28 33 -29 37 -10 82 14 33 14 37 -9 63 -20 22 -24 24 -25 9 0 -9 -14 -31
-30 -49 l-30 -31 26 -35 c24 -31 26 -38 16 -67 -15 -39 -15 -45 -1 -45 6 0 26
-7 45 -16 27 -13 34 -22 34 -44 0 -16 -7 -36 -16 -44 -23 -24 -70 -20 -88 6
-18 25 -21 64 -6 73 6 3 10 12 10 20 0 16 -52 6 -88 -16 -34 -21 -27 -46 18
-69 34 -17 40 -25 40 -53 0 -18 -4 -47 -9 -65 -5 -17 -6 -32 -2 -32 18 0 99
-62 103 -78 7 -24 -21 -92 -36 -92 -36 0 -86 72 -86 124 0 20 -9 30 -40 46
-56 29 -92 124 -59 157 8 8 8 25 -2 62 -12 48 -11 53 9 81 12 16 22 32 22 35
0 3 -12 24 -27 46 -26 39 -26 43 -12 68 10 17 13 34 8 46 -13 33 -10 77 6 95
14 15 13 20 -12 45 -23 22 -29 24 -31 11 -2 -9 -8 -16 -13 -16 -19 0 -28 -44
-13 -67 21 -33 17 -61 -12 -90 -20 -20 -24 -32 -19 -52 17 -71 17 -77 -9 -108
-32 -38 -33 -53 -1 -83 28 -27 32 -62 10 -104 -21 -39 -19 -73 4 -81 41 -13
71 -52 71 -94 0 -52 -8 -71 -30 -71 -26 0 -79 68 -92 118 -6 23 -21 51 -34 61
-13 11 -31 34 -38 53 -13 29 -13 38 -1 59 31 53 35 70 25 90 -6 10 -16 19 -22
19 -7 0 -9 18 -6 52 4 34 0 67 -10 95 -13 35 -14 48 -4 76 7 20 10 52 6 80 -4
29 -2 52 4 60 9 10 7 19 -5 36 -8 13 -16 45 -17 74 -1 60 -20 72 -49 32 -14
-19 -15 -29 -7 -44 15 -28 12 -58 -7 -87 -13 -21 -14 -30 -5 -45 17 -27 15
-47 -8 -84 -20 -32 -20 -35 -4 -74 16 -41 16 -41 -12 -79 -15 -20 -32 -38 -36
-40 -4 -2 8 -17 27 -34 19 -16 35 -36 35 -44 0 -26 -55 -114 -71 -114 -9 0
-27 9 -40 19 l-24 19 21 49 c22 52 19 79 -11 109 -18 18 -19 31 -4 72 9 25 7
38 -5 63 -20 40 -21 78 -2 85 26 10 27 35 1 66 -17 20 -25 41 -24 66 0 20 -4
51 -9 67 -6 21 -5 39 4 60 7 17 16 47 19 68 4 28 12 40 31 47 16 6 27 20 30
39 13 65 70 27 85 -56 13 -66 25 -78 56 -53 14 11 38 20 54 20 16 0 37 9 48
21 17 19 22 20 48 7 27 -13 28 -15 31 -108 2 -52 7 -99 13 -105 6 -6 17 -1 32
13 16 17 22 34 22 69 0 46 1 47 37 58 53 15 68 32 44 50 -10 8 -23 16 -29 18
-6 2 -6 10 1 24 22 41 72 39 72 -4 0 -14 12 -35 30 -52 25 -22 30 -34 26 -57
-3 -17 1 -38 10 -52 l16 -24 14 21 c9 12 23 21 33 21 27 0 81 21 81 31 0 5
-11 14 -24 19 -53 20 -33 89 31 105 39 9 56 -12 50 -62 -2 -24 -2 -43 2 -43 3
0 14 -7 24 -15 17 -12 17 -17 6 -49 -18 -50 -3 -65 44 -42 19 9 48 16 64 17
29 0 76 16 58 19 -5 1 -25 4 -44 6 -68 8 -84 55 -27 79 18 8 36 21 39 30 4 9
19 15 41 15 30 0 37 -4 42 -25 3 -13 1 -39 -5 -56 -14 -41 -15 -39 14 -39 32
0 41 -22 27 -67 -9 -28 -8 -42 3 -63 11 -21 12 -35 3 -64 -15 -49 2 -70 32
-38 12 12 30 22 40 22 25 0 25 5 -1 31 -13 13 -19 30 -17 47 3 24 8 27 43 30
51 4 67 19 29 27 -50 11 -71 23 -76 43 -7 24 -1 33 34 51 15 8 30 22 34 33 6
21 46 24 90 8 19 -8 30 -8 38 0 5 5 17 10 26 10 9 0 25 9 35 20 39 43 85 16
85 -50 0 -20 6 -32 18 -36 9 -3 31 -11 47 -18 23 -10 39 -10 70 -1 l40 12 3
61 3 61 -43 11 c-24 6 -115 36 -203 65 -106 35 -199 59 -275 70 -63 9 -117 18
-120 20 -3 2 -44 8 -90 14 -99 13 -525 82 -720 116 -75 13 -192 41 -260 62
l-125 38 -469 3 c-520 3 -505 4 -501 -61 2 -17 -1 -36 -5 -42 -4 -5 -15 -31
-25 -57 -19 -50 -22 -53 -44 -39 -19 12 -16 139 4 161 8 9 15 22 15 28 0 9
-355 12 -1475 12 -811 0 -1475 -2 -1475 -3z m2802 -45 c5 -36 -15 -58 -33 -36
-9 11 -9 21 -1 39 15 33 29 32 34 -3z m366 -138 c4 -121 -26 -183 -55 -116 -9
20 -10 38 -3 62 5 18 10 50 11 69 3 43 15 71 32 71 9 0 13 -25 15 -86z m399
-14 c41 0 52 -90 15 -127 -21 -21 -23 -30 -17 -72 5 -37 3 -50 -9 -60 -22 -18
-20 -48 4 -78 18 -23 19 -29 7 -47 -18 -28 -31 -74 -32 -111 0 -29 -3 -31 -46
-26 -6 0 -9 7 -6 14 2 6 0 21 -6 31 -20 41 -20 87 2 117 23 31 28 88 9 107
-10 10 -10 17 0 33 11 17 10 25 -5 47 -29 44 -31 55 -11 87 10 16 18 36 18 43
0 7 10 26 22 43 20 26 24 28 34 15 6 -9 16 -16 21 -16z m-193 -16 c8 -42 1
-82 -26 -147 -20 -46 -21 -47 -40 -30 -21 19 -68 107 -68 129 0 23 73 83 101
84 23 0 28 -5 33 -36z m382 -48 c-3 -13 1 -37 10 -55 11 -22 14 -47 10 -83 -2
-29 -1 -57 4 -63 4 -5 10 -37 12 -70 2 -33 8 -68 12 -77 5 -12 -2 -26 -23 -49
-36 -37 -36 -36 -17 -80 14 -32 13 -36 -10 -67 -27 -35 -26 -55 6 -92 28 -32
25 -51 -11 -86 -30 -29 -31 -29 -45 -9 -9 12 -13 30 -10 45 19 84 19 91 -3
106 -26 19 -27 44 -1 94 20 40 18 66 -8 86 -12 8 -12 15 -3 32 8 16 9 37 2 74
-7 40 -6 57 5 72 13 20 10 62 -7 81 -14 14 -11 42 5 48 7 3 16 22 20 41 4 23
13 36 23 36 9 0 13 6 10 14 -5 12 3 21 22 25 2 1 0 -10 -3 -23z m259 -32 c8
-20 15 -50 15 -67 0 -17 8 -35 17 -42 17 -12 17 -14 1 -32 -21 -23 -24 -40
-14 -81 6 -24 3 -40 -9 -59 -13 -19 -15 -36 -10 -69 5 -38 2 -49 -20 -79 l-27
-34 20 -33 c24 -39 17 -59 -29 -78 -26 -11 -32 -11 -40 1 -5 8 -6 21 -3 29 17
47 16 72 -5 94 -18 19 -21 31 -16 59 6 31 -1 60 -32 119 -2 4 6 15 16 25 18
17 19 23 9 55 -11 38 -10 44 21 93 11 17 20 40 20 53 1 37 29 82 51 82 13 0
25 -12 35 -36z m-1061 -10 c8 -31 -4 -47 -27 -38 -17 6 -23 44 -10 57 14 15
31 6 37 -19z m1866 1 c0 -8 -4 -15 -10 -15 -5 0 -10 7 -10 15 0 8 5 15 10 15
6 0 10 -7 10 -15z m268 -42 c2 -7 -4 -16 -12 -19 -19 -7 -49 14 -40 28 8 13
46 6 52 -9z m-1950 -38 c20 -23 20 -25 4 -45 -15 -19 -19 -19 -36 -7 -18 13
-18 18 -7 46 8 17 14 31 15 31 2 0 12 -11 24 -25z m2210 16 c8 -5 12 -22 10
-42 -3 -32 -5 -34 -40 -33 -67 2 -90 42 -40 68 31 17 51 19 70 7z m-2423 -81
c3 -5 -1 -10 -9 -10 -9 0 -16 5 -16 10 0 6 4 10 9 10 6 0 13 -4 16 -10z m409
-26 c10 -25 7 -31 -15 -37 -22 -6 -35 13 -25 38 7 20 32 19 40 -1z m-414 -133
c0 -6 -4 -13 -10 -16 -5 -3 -10 1 -10 9 0 9 5 16 10 16 6 0 10 -4 10 -9z m408
-23 c2 -9 -5 -19 -17 -23 -30 -9 -43 2 -30 26 12 23 42 21 47 -3z m-201 -74
c7 -18 -17 -38 -31 -24 -11 11 -1 40 14 40 6 0 13 -7 17 -16z m-1952 -60 c22
-41 15 -61 -30 -83 -26 -12 -29 -11 -51 15 -30 37 -30 61 -1 85 35 29 60 24
82 -17z m1490 -23 c49 -7 72 -16 109 -46 16 -12 17 -17 6 -30 -18 -21 -9 -27
26 -16 16 5 59 12 95 15 65 6 67 6 66 -16 0 -13 2 -29 4 -37 2 -9 -14 -24 -46
-41 -71 -38 -101 -109 -64 -148 18 -20 19 -23 3 -47 -9 -13 -17 -47 -17 -75
-1 -27 -7 -50 -12 -50 -6 0 -9 19 -7 45 4 48 4 49 -55 45 -47 -2 -41 8 12 21
54 14 59 20 50 60 -7 30 -9 31 -46 25 -55 -9 -85 -25 -98 -52 -16 -36 -39 -31
-37 9 1 28 -3 32 -25 35 -22 3 -33 -5 -55 -37 -19 -27 -37 -41 -51 -41 -13 0
-23 3 -23 6 0 8 94 100 107 105 17 7 86 89 80 96 -3 3 -24 -2 -47 -11 -55 -22
-51 -4 9 39 33 24 49 43 48 55 -2 25 -13 26 -19 2 -5 -19 -97 -77 -106 -67 -3
3 5 16 18 30 26 28 16 33 -18 9 -31 -22 -28 -84 5 -84 12 0 14 -7 9 -32 -7
-34 -20 -48 -49 -48 -14 0 -16 4 -7 19 16 31 13 43 -9 31 -29 -15 -32 -13 -25
15 4 16 2 25 -6 25 -7 0 -9 8 -5 19 5 18 2 19 -29 14 -33 -5 -36 -4 -36 20 0
14 -5 29 -10 32 -13 8 -2 86 15 104 18 18 69 6 61 -14 -3 -8 -1 -15 4 -15 6 0
10 4 10 9 0 5 8 17 17 26 13 13 26 16 57 10 23 -4 64 -10 91 -14z m663 -8 c2
-14 -4 -26 -17 -32 -25 -14 -34 -1 -25 34 8 32 38 30 42 -2z m-2019 -11 c11
-20 4 -36 -21 -45 -12 -4 -19 2 -26 23 -6 15 -8 31 -5 34 13 12 43 5 52 -12z
m1035 -4 c2 -7 7 -27 13 -44 5 -17 6 -40 2 -52 -11 -28 0 -82 16 -82 14 0 65
-45 65 -58 0 -5 9 -17 20 -27 29 -26 21 -97 -16 -136 -26 -27 -39 -75 -22 -85
4 -3 1 -18 -7 -34 -10 -20 -12 -31 -4 -35 7 -5 5 -13 -6 -25 -11 -12 -14 -26
-10 -39 5 -16 1 -23 -20 -31 -36 -14 -40 -13 -24 8 40 49 50 92 23 92 -15 0
-15 2 -2 23 9 13 14 39 12 62 -3 33 2 45 28 72 24 25 28 33 15 33 -9 0 -17 5
-17 10 0 6 5 10 11 10 5 0 7 5 4 10 -3 6 -15 10 -27 10 -18 0 -19 2 -7 17 11
13 11 17 2 20 -7 3 -13 16 -13 29 0 13 -3 24 -7 24 -13 0 -43 60 -43 85 0 13
-4 26 -9 29 -11 7 -22 91 -15 111 7 18 33 20 38 3z m1200 -62 c9 -14 6 -21
-13 -37 -22 -18 -26 -18 -39 -5 -13 13 -13 18 2 41 19 28 33 29 50 1z m-1311
-32 c11 -15 16 -32 12 -42 -6 -15 -9 -13 -18 8 -6 14 -17 29 -24 33 -7 4 -13
12 -13 17 0 19 25 9 43 -16z m1765 -66 c17 -17 15 -36 -9 -69 -22 -31 -53 -38
-62 -15 -6 14 5 65 18 86 8 14 38 13 53 -2z m-1818 -49 c0 -12 -7 -19 -20 -19
-22 0 -29 35 -7 43 18 6 27 -2 27 -24z m87 15 c8 -20 -13 -42 -27 -28 -12 12
-3 44 11 44 5 0 12 -7 16 -16z m1303 -64 c0 -5 -2 -10 -4 -10 -3 0 -8 5 -11
10 -3 6 -1 10 4 10 6 0 11 -4 11 -10z m-1290 -16 c0 -8 -4 -12 -10 -9 -5 3
-10 10 -10 16 0 5 5 9 10 9 6 0 10 -7 10 -16z m690 1 c-33 -19 -50 -18 -26 0
11 8 27 15 35 15 10 -1 7 -6 -9 -15z m842 -39 c7 -35 -11 -50 -34 -29 -18 16
-24 53 -12 66 12 12 42 -12 46 -37z m-1749 11 c20 -15 26 -27 22 -40 -10 -23
-22 -21 -36 6 -7 12 -18 26 -25 30 -8 4 -14 12 -14 17 0 17 24 11 53 -13z
m271 -55 c9 -33 -4 -93 -30 -137 -17 -29 -25 -83 -13 -91 6 -3 7 -10 1 -17 -6
-7 -11 -39 -13 -72 l-4 -60 50 3 c30 2 58 11 70 21 11 10 35 26 52 37 24 13
31 23 27 36 -4 13 0 18 15 18 10 0 28 3 38 7 10 3 -13 -24 -51 -60 l-68 -67 4
-55 c5 -55 5 -55 -24 -55 -32 0 -35 7 -11 25 14 11 15 17 6 38 -16 34 -77 46
-104 21 -33 -30 -21 -57 29 -67 61 -12 46 -19 -37 -18 -51 1 -74 -3 -85 -15
-32 -32 -19 -58 63 -130 l79 -69 -23 -25 c-13 -14 -36 -39 -52 -57 -15 -17
-39 -34 -51 -38 -22 -6 -23 -4 -20 27 2 28 0 33 -17 31 -18 -1 -17 1 5 19 29
24 37 68 13 68 -9 0 -13 3 -10 6 8 8 -24 64 -36 64 -18 0 -65 -30 -71 -45 -17
-46 -6 -75 49 -129 30 -29 55 -62 55 -72 0 -10 7 -28 15 -38 14 -19 15 -18 15
11 0 24 9 39 36 61 20 17 42 28 48 26 6 -2 26 10 44 27 17 16 36 28 41 25 5
-3 11 3 14 14 4 15 14 20 39 20 27 0 75 17 58 21 -29 7 -86 6 -106 -1 -22 -9
-23 -8 -11 11 10 16 9 21 -3 30 -11 8 -7 9 18 6 17 -2 32 0 32 5 0 4 7 8 16 8
11 0 14 6 9 23 -4 12 -7 24 -7 27 0 24 4 31 17 26 20 -7 19 4 -1 19 -9 6 -15
17 -12 25 2 8 13 4 35 -14 29 -24 31 -30 22 -59 -5 -17 -6 -45 -3 -62 7 -32
21 -45 132 -122 l76 -53 105 0 c101 0 104 1 82 17 -19 13 -28 14 -42 4 -15 -9
-19 -8 -17 1 4 17 -52 13 -63 -3 -5 -9 -14 -8 -34 5 -15 10 -34 15 -43 11 -9
-3 -13 -3 -9 1 3 4 -11 22 -33 41 -35 31 -38 37 -25 50 8 8 19 12 24 8 6 -3
16 1 23 8 9 11 17 11 29 4 13 -8 21 -6 35 7 12 12 29 17 55 14 20 -2 35 0 33
4 -22 36 104 -11 142 -53 9 -10 25 -19 36 -19 11 0 18 -7 18 -19 0 -14 9 -20
33 -24 68 -11 112 -34 115 -61 3 -19 -1 -26 -15 -27 -10 0 -26 -2 -36 -4 -11
-2 -35 12 -58 32 -28 25 -39 31 -39 19 0 -11 -10 -16 -32 -17 l-33 -1 37 -11
c20 -7 49 -22 63 -34 14 -13 31 -23 39 -23 8 0 23 -18 34 -40 l20 -40 -52 -45
c-50 -45 -100 -67 -134 -60 -10 2 -45 6 -77 9 l-60 6 53 -18 c30 -9 54 -21 55
-27 3 -17 -83 -33 -177 -34 -81 -1 -93 2 -148 31 -51 27 -59 35 -55 55 3 17 0
23 -13 23 -17 0 -47 -27 -39 -34 2 -1 25 -17 50 -34 92 -62 91 -63 -82 -62
-117 1 -172 6 -228 21 -41 10 -83 19 -94 19 -31 0 -3 -26 50 -46 69 -27 32
-38 -99 -29 -97 6 -112 5 -129 -11 -11 -10 -45 -23 -77 -30 l-57 -12 43 -1
c29 -1 42 -5 40 -13 -7 -19 -119 -57 -173 -59 -27 0 -88 -3 -135 -5 -81 -5
-87 -4 -113 20 -15 14 -27 30 -27 36 0 5 -20 10 -44 10 -83 0 -125 34 -75 61
l21 11 -23 24 c-21 22 -21 25 -6 42 11 11 13 22 7 28 -6 6 -6 15 0 24 7 10 12
12 18 4 4 -6 25 -14 47 -18 22 -4 46 -8 54 -10 8 -1 18 -11 22 -22 7 -18 8
-17 8 3 1 12 -3 25 -9 28 -5 3 -9 24 -8 46 1 24 -4 44 -12 49 -8 5 -10 15 -6
26 4 9 2 21 -5 24 -8 5 -6 16 6 39 12 24 14 40 7 59 -6 20 -5 33 7 51 9 14 11
26 6 28 -37 13 -38 21 -9 56 35 43 42 44 50 11 6 -22 -3 -65 -22 -110 -3 -7 3
-20 13 -29 16 -17 16 -20 -5 -58 -22 -40 -22 -40 -2 -54 11 -8 24 -31 30 -51
11 -41 61 -97 81 -90 7 2 -4 14 -24 26 -37 21 -50 52 -22 52 20 0 20 49 0 64
-14 10 -14 15 0 51 9 22 22 52 30 66 12 23 12 29 -5 56 -13 23 -15 34 -7 42
16 16 37 14 31 -4 -4 -8 -1 -22 6 -30 7 -8 10 -21 7 -29 -3 -8 0 -17 7 -19 9
-4 12 -16 9 -34 l-5 -28 26 28 c15 15 32 27 39 27 7 0 3 7 -7 15 -19 15 -19
16 7 43 32 33 35 52 7 52 -26 0 -25 14 1 50 14 18 20 37 16 50 -4 15 3 31 23
53 l29 32 0 -40 c0 -22 -6 -49 -14 -59 -16 -21 -20 -82 -7 -90 5 -3 7 -18 4
-34 -3 -23 0 -30 18 -35 17 -4 20 -10 15 -26 -9 -30 2 -26 18 7 27 53 29 166
3 163 -11 -2 -4 13 20 42 l24 29 0 -32 c0 -23 5 -33 20 -37 15 -4 20 -15 22
-56 3 -52 28 -82 28 -33 0 14 4 26 9 26 12 0 28 50 23 73 -2 13 -10 15 -28 11
-13 -3 -24 -3 -24 0 0 12 42 96 51 102 5 3 3 14 -4 24 -10 17 -8 24 16 45 19
19 26 32 22 48 -4 16 1 26 16 35 30 19 41 0 33 -52 l-6 -39 30 24 c42 34 54
56 43 77 -7 12 1 38 30 97 44 91 45 95 24 95 -13 0 -14 4 -3 23 6 12 11 32 9
45 -3 25 11 29 29 7 16 -19 6 -122 -14 -145 -7 -8 -16 -27 -20 -42 -3 -14 -9
-33 -12 -42 -4 -10 -1 -16 10 -16 19 0 12 -24 -21 -63 -28 -35 -28 -42 -3 -67
18 -18 24 -19 48 -8 15 7 28 22 30 33 2 11 8 31 15 44 9 19 9 25 0 28 -10 4
-9 10 2 26 21 31 19 40 -10 35 -30 -6 -32 5 -5 23 12 8 22 25 22 39 1 14 8 32
15 41 12 14 12 17 -2 23 -15 5 -13 10 9 37 14 17 24 35 21 40 -3 5 -1 18 5 29
6 12 7 20 1 20 -5 0 -8 19 -6 43 3 52 2 49 22 45 10 -2 22 -18 27 -36z m1709
10 c22 -19 22 -75 1 -93 -14 -11 -20 -10 -40 14 -44 51 -45 115 -2 102 13 -4
31 -14 41 -23z m195 -21 c42 -21 62 -55 62 -104 -1 -76 -49 -77 -91 -2 -23 40
-27 58 -22 88 3 20 7 37 10 37 2 0 21 -9 41 -19z m-1687 -34 c-16 -16 -26 0
-10 19 9 11 15 12 17 4 2 -6 -1 -17 -7 -23z m112 -14 c-13 -8 -23 -21 -23 -29
0 -17 -17 -27 -25 -14 -7 12 39 60 57 59 7 0 3 -7 -9 -16z m-143 -33 c0 -5 -8
-10 -17 -10 -15 0 -16 2 -3 10 19 12 20 12 20 0z m29 -51 c-6 -12 -8 -30 -5
-41 4 -16 2 -18 -7 -9 -6 6 -19 11 -29 11 -24 0 -23 17 1 25 11 3 22 12 25 20
3 8 10 15 16 15 7 0 7 -6 -1 -21z m198 -5 c-16 -9 -31 -13 -34 -10 -3 3 5 10
18 15 37 15 47 12 16 -5z m-907 -15 c0 -5 -7 -9 -15 -9 -9 0 -12 6 -9 15 6 15
24 11 24 -6z m825 -39 c-33 -34 -49 -31 -33 8 21 48 29 55 47 38 13 -14 12
-19 -14 -46z m-592 -21 c3 -23 3 -48 0 -55 -8 -21 -25 -5 -18 18 5 14 1 21
-14 25 -19 5 -20 7 -5 34 19 37 30 31 37 -22z m2110 10 c20 -24 22 -55 5 -65
-11 -7 -88 71 -88 90 0 16 65 -4 83 -25z m-1588 -21 c-19 -11 -30 -5 -21 11 4
6 14 7 22 4 15 -5 14 -7 -1 -15z m1804 -35 c29 -35 41 -73 23 -73 -4 0 -20 12
-34 28 -15 15 -36 35 -48 45 -11 10 -18 22 -15 27 13 21 45 9 74 -27z m-2449
-68 c0 -18 -16 -35 -32 -35 -18 0 -19 4 -14 35 5 23 3 35 -4 35 -6 0 -8 5 -5
10 4 7 16 1 31 -15 13 -14 24 -28 24 -30z m1685 -5 c7 -12 -2 -12 -30 0 -19 8
-19 9 2 9 12 1 25 -3 28 -9z m1275 -60 c30 -56 -15 -69 -55 -15 -15 19 -24 39
-21 44 9 14 64 -7 76 -29z m-2986 -18 c2 -4 1 -14 -4 -22 -7 -11 -12 -12 -21
-3 -6 6 -8 16 -5 22 8 13 23 14 30 3z m3191 -27 c27 -26 33 -55 12 -55 -19 0
-70 57 -63 69 11 17 25 13 51 -14z m516 -41 c32 -33 33 -36 19 -61 -26 -46
-46 -51 -74 -18 -28 32 -39 62 -25 71 5 3 9 16 9 29 0 32 28 24 71 -21z
m-3723 -15 c3 -27 -28 -52 -53 -43 -20 8 -19 16 6 48 25 31 43 29 47 -5z
m-108 14 c0 -5 -4 -14 -9 -22 -11 -17 -32 -5 -24 14 5 15 33 21 33 8z m-160
-34 c0 -12 -7 -19 -20 -19 -22 0 -26 20 -8 38 15 15 28 6 28 -19z m964 11
c-15 -15 -74 -24 -74 -12 0 12 21 19 60 21 16 1 21 -2 14 -9z m1419 -34 c-8
-15 -11 -15 -28 4 -10 11 -13 20 -7 20 6 0 13 -6 16 -12 4 -7 4 -2 2 11 -5 22
-4 23 11 9 10 -11 12 -21 6 -32z m-1049 4 c39 -5 74 -6 79 -3 16 10 -5 -72
-24 -92 -19 -19 -19 -19 -19 2 0 12 5 25 10 28 19 12 10 23 -22 28 -72 11
-159 34 -170 45 -11 11 -1 10 146 -8z m-194 -14 c32 -13 93 -66 76 -66 -3 0
-33 11 -65 24 -32 14 -67 25 -77 25 -69 -2 -144 4 -144 11 0 31 143 35 210 6z
m-1129 -18 c6 -76 -12 -128 -37 -107 -18 15 -18 28 2 50 9 10 17 30 17 44 0
25 16 36 18 13z m709 -8 c0 -10 -31 -24 -45 -21 -5 2 -23 5 -39 7 -44 5 -42
12 6 21 45 10 78 6 78 -7z m1343 1 c16 -6 37 -11 47 -11 29 0 50 -11 50 -26 0
-8 -7 -14 -15 -14 -8 0 -15 -4 -15 -10 0 -5 5 -10 10 -10 22 0 8 -19 -21 -29
-45 -15 -95 -14 -129 4 -40 21 -38 27 9 21 42 -4 84 15 63 28 -7 4 -12 3 -12
-2 0 -9 -20 -7 -107 13 -22 5 -53 30 -53 43 0 11 142 5 173 -7z m-2235 -28 c2
-8 -5 -13 -17 -13 -12 0 -21 6 -21 16 0 18 31 15 38 -3z m2014 -23 c58 0 79
-19 72 -63 -4 -26 -3 -29 6 -14 15 24 36 21 75 -9 30 -22 33 -29 24 -46 -6
-11 -9 -28 -6 -38 2 -10 1 -23 -3 -30 -10 -16 -33 -3 -27 14 10 25 -38 58 -71
49 -14 -3 -24 2 -32 16 -9 18 -17 21 -46 15 -20 -4 -34 -2 -34 4 0 5 -11 7
-24 5 -21 -4 -24 -2 -19 16 3 13 1 21 -7 21 -7 0 -18 7 -25 16 -7 11 -31 18
-66 21 -122 10 -76 30 61 26 41 -1 96 -2 122 -3z m-1997 -20 c3 -5 -1 -10 -9
-10 -9 0 -16 5 -16 10 0 6 4 10 9 10 6 0 13 -4 16 -10z m1628 -95 c21 -15 21
-15 -11 -15 -23 0 -36 7 -48 26 -15 21 -15 27 -4 34 9 6 19 2 27 -10 8 -11 24
-26 36 -35z m-1774 -70 c7 -25 11 -59 9 -76 -3 -16 -1 -32 4 -35 14 -9 9 -41
-11 -65 -24 -30 -39 -18 -24 20 8 24 7 32 -5 45 -14 14 -14 21 -3 52 12 33 11
37 -9 51 -20 14 -20 16 -4 34 24 27 28 25 43 -26z m2236 -15 c86 -43 87 -47
10 -26 -60 15 -115 43 -115 56 0 18 24 11 105 -30z m-2425 -25 c12 -33 3 -55
-24 -55 -43 0 -50 15 -25 49 28 38 37 39 49 6z m-265 -15 c3 -5 -1 -10 -9 -10
-9 0 -16 5 -16 10 0 6 4 10 9 10 6 0 13 -4 16 -10z m70 -80 c0 -34 1 -35 39
-32 21 2 36 0 34 -5 -3 -4 -12 -25 -22 -45 -17 -39 -24 -42 -64 -31 -21 5 -23
10 -17 39 5 30 3 35 -20 44 -27 10 -30 21 -14 51 7 14 19 19 37 17 24 -3 27
-7 27 -38z m238 12 c2 -10 -1 -27 -7 -40 -6 -15 -6 -26 1 -33 14 -14 4 -49
-13 -49 -10 0 -13 7 -8 25 5 20 1 26 -20 35 -31 11 -32 16 -6 57 20 34 46 36
53 5z m2203 -77 c7 -19 14 -57 14 -86 l0 -51 -42 7 c-57 10 -81 23 -74 42 3 8
9 33 12 54 5 29 11 39 21 35 7 -3 21 3 31 13 23 25 21 26 38 -14z m-182 -7
c11 -43 7 -86 -10 -92 -9 -3 -47 -6 -85 -6 -55 0 -71 3 -76 16 -13 33 42 82
104 94 59 12 60 11 67 -12z m-2414 -56 c0 -28 -39 -47 -87 -43 -24 2 -13 29
19 49 23 15 37 18 50 11 10 -5 18 -13 18 -17z m235 -12 c14 -22 -6 -50 -36
-50 -31 0 -35 10 -19 41 11 20 45 26 55 9z m220 -29 c3 -5 -6 -22 -19 -38 -19
-22 -27 -25 -37 -16 -10 10 -10 18 -1 38 11 25 45 34 57 16z m-415 -46 c7 -8
10 -26 8 -40 -3 -14 0 -25 6 -26 6 -1 18 -2 26 -3 17 -1 24 -25 12 -44 -5 -7
-22 -14 -38 -15 -26 -2 -29 1 -27 26 2 24 -4 31 -33 43 -38 16 -42 29 -17 56
20 22 46 23 63 3z m250 -24 c0 -17 -33 -51 -50 -51 -32 0 -35 22 -6 46 23 21
56 23 56 5z m140 -36 c0 -17 -17 -28 -30 -20 -6 4 -5 13 2 25 13 20 28 18 28
-5z m-160 -99 c-13 -40 -30 -48 -30 -14 0 21 29 62 38 54 2 -3 -1 -21 -8 -40z
m-136 -31 c7 -20 -2 -42 -20 -49 -8 -3 -14 -14 -14 -24 0 -22 -9 -34 -22 -26
-5 3 -4 12 3 20 9 11 9 18 1 26 -25 25 -6 68 29 68 9 0 19 -7 23 -15z m-179
-92 c-14 -114 -20 -138 -35 -138 -9 0 -14 7 -12 19 2 10 0 25 -4 35 -4 9 -8
27 -8 40 -1 13 -10 29 -21 35 -11 6 -22 12 -24 14 -3 1 6 13 19 27 16 17 34
25 57 25 l34 0 -6 -57z m145 -53 c0 -5 -7 -10 -16 -10 -8 0 -12 5 -9 10 3 6
10 10 16 10 5 0 9 -4 9 -10z m-169 -153 c-16 -16 -25 -1 -10 16 8 8 16 11 18
5 2 -5 -2 -15 -8 -21z m127 13 c-15 -23 -28 -26 -28 -7 0 17 10 27 27 27 11 0
11 -4 1 -20z m1599 -242 c53 -52 37 -76 -27 -43 -32 17 -33 18 -24 53 8 29 12
28 51 -10z m373 -18 c0 -5 -2 -10 -4 -10 -3 0 -8 5 -11 10 -3 6 -1 10 4 10 6
0 11 -4 11 -10z m29 -29 c7 -5 10 -14 6 -20 -5 -9 -10 -9 -21 0 -26 22 -14 38
15 20z m261 -46 c7 -8 10 -19 6 -22 -10 -11 -38 10 -47 35 -7 20 -6 21 10 13
10 -6 24 -17 31 -26z m-145 -15 c3 -5 2 -10 -4 -10 -5 0 -13 5 -16 10 -3 6 -2
10 4 10 5 0 13 -4 16 -10z m432 -16 c-7 -7 -37 7 -37 17 0 6 9 5 21 -1 11 -7
19 -14 16 -16z m-162 -15 c7 -8 0 -9 -25 -4 -19 4 -39 12 -45 17 -7 7 1 9 25
4 19 -3 39 -11 45 -17z m230 -50 c14 -14 -13 -10 -85 14 -41 14 -66 28 -68 39
-3 14 8 12 70 -13 40 -17 77 -34 83 -40z m-395 22 c39 -38 42 -51 11 -51 -16
0 -61 60 -61 80 0 16 8 12 50 -29z m-972 -27 c32 -22 28 -44 -8 -44 -27 0 -30
3 -30 30 0 34 6 36 38 14z m1316 -34 c15 0 86 -33 86 -40 0 -4 -21 -3 -47 1
-27 4 -68 8 -93 8 -42 1 -47 4 -60 34 -7 17 -15 35 -17 39 -3 4 24 -4 58 -17
35 -14 67 -25 73 -25z m196 15 l35 -13 -40 -2 -40 -2 40 -19 c22 -10 47 -19
56 -19 9 0 32 -7 50 -15 l34 -16 -42 6 c-100 12 -123 18 -144 38 -14 13 -18
22 -11 25 7 2 12 10 12 18 0 17 4 17 50 -1z m-397 -5 c5 0 6 -4 3 -9 -4 -5 0
-12 6 -14 18 -8 -43 -8 -69 -1 -13 4 -23 13 -23 21 0 11 9 13 38 9 20 -3 41
-5 45 -6z m-1233 -31 c0 -11 -4 -17 -10 -14 -5 3 -10 13 -10 21 0 8 5 14 10
14 6 0 10 -9 10 -21z m1697 15 c-3 -3 -12 -4 -19 -1 -8 3 -5 6 6 6 11 1 17 -2
13 -5z m-57 -87 c19 -8 54 -18 77 -22 22 -3 49 -12 58 -19 13 -9 2 -10 -57 -3
-108 13 -112 14 -141 41 -15 14 -27 27 -27 30 0 6 44 -7 90 -27z m258 16 c17
-3 32 -10 32 -14 0 -5 -15 -9 -32 -10 -33 0 -33 0 -8 -11 14 -5 39 -11 55 -12
17 -2 44 -10 60 -19 25 -14 27 -16 9 -17 -11 0 -24 3 -28 7 -4 4 -30 9 -59 11
-57 4 -98 20 -105 41 -3 9 2 11 19 7 20 -6 21 -5 7 4 -10 6 -18 16 -18 22 0 6
8 7 18 3 9 -4 32 -9 50 -12z m-1758 -43 c10 -18 8 -20 -20 -20 -32 0 -38 8
-18 28 17 17 26 15 38 -8z m60 -65 c17 -30 16 -55 -2 -55 -5 0 -7 4 -4 9 3 4
-6 23 -19 41 -30 40 -30 42 -8 38 9 -2 24 -16 33 -33z m-225 -33 c-8 -9 -25
20 -18 31 3 5 10 2 15 -7 6 -10 7 -20 3 -24z m73 16 c19 -19 14 -29 -8 -16
-20 13 -27 28 -12 28 4 0 13 -5 20 -12z m40 -53 c-3 -3 -9 2 -12 12 -6 14 -5
15 5 6 7 -7 10 -15 7 -18z m189 -27 c-2 -24 -7 -42 -10 -40 -4 1 -11 2 -17 2
-15 0 -12 67 3 73 25 11 28 6 24 -35z m-257 -55 c0 -7 -18 5 -40 27 -23 23
-38 46 -34 52 8 12 73 -59 74 -79z m-130 3 c0 -2 7 -20 15 -39 14 -34 14 -36
-2 -30 -29 11 -66 50 -59 62 7 10 46 16 46 7z m423 -65 c49 -46 44 -66 -7 -27
-19 14 -44 26 -55 26 -14 0 -21 6 -21 20 0 32 36 24 83 -19z m-553 -20 c15
-29 13 -32 -15 -19 -14 6 -25 17 -25 25 0 20 28 16 40 -6z m440 -31 c27 -27
26 -43 -2 -34 -31 9 -48 24 -48 40 0 20 27 17 50 -6z m-230 -65 c0 -14 -4 -25
-9 -25 -12 0 -23 29 -15 41 10 18 24 9 24 -16z m460 4 c0 -5 -5 -9 -10 -9 -7
0 -7 -6 0 -20 6 -11 7 -20 3 -20 -17 0 -32 16 -38 41 -6 24 -4 26 19 22 14 -3
26 -9 26 -14z m-342 -1 c19 -19 15 -48 -5 -45 -34 5 -54 23 -47 40 7 20 35 22
52 5z m463 -29 c52 -34 67 -58 47 -71 -20 -12 -32 -10 -56 12 -12 11 -28 20
-36 20 -27 0 -47 29 -36 51 14 26 24 24 81 -12z m-593 -61 c3 -14 -3 -18 -25
-18 -15 0 -35 5 -43 10 -13 9 -13 11 0 20 23 15 64 8 68 -12z m468 9 c20 -12
94 -90 94 -100 0 -11 -51 -13 -60 -2 -6 7 -28 15 -50 19 -35 5 -40 10 -40 32
0 27 16 64 28 64 4 -1 16 -6 28 -13z m-110 -32 c-1 -29 -16 -35 -16 -7 0 16 8
32 16 32 1 0 1 -11 0 -25z m289 -15 c3 -5 2 -10 -4 -10 -5 0 -13 5 -16 10 -3
6 -2 10 4 10 5 0 13 -4 16 -10z m-801 -6 c24 -9 19 -24 -8 -24 -28 0 -43 16
-24 23 7 3 14 6 15 6 1 1 8 -2 17 -5z m520 -53 c18 -35 12 -43 -22 -30 -17 7
-29 6 -36 -1 -15 -15 -26 -12 -26 6 0 56 59 74 84 25z m376 -1 c0 -23 -12 -31
-29 -21 -10 7 -11 13 -2 30 14 24 31 19 31 -9z m-510 -7 c0 -29 -12 -24 -17 7
-2 11 2 20 7 20 6 0 10 -12 10 -27z m160 -53 c0 -5 -4 -10 -10 -10 -5 0 -10 5
-10 10 0 6 5 10 10 10 6 0 10 -4 10 -10z"/>
<path d="M2810 3191 c0 -28 21 -37 36 -16 16 22 10 35 -17 35 -12 0 -19 -7
-19 -19z"/>
<path d="M3174 3179 c-47 -6 -66 -13 -103 -38 -27 -17 5 -40 47 -35 70 9 142
37 142 55 0 22 -23 26 -86 18z"/>
<path d="M3055 3068 c-31 -17 -75 -60 -75 -74 0 -21 42 -24 67 -4 13 10 37 22
54 25 27 6 49 30 49 54 0 14 -69 14 -95 -1z"/>
<path d="M2341 2426 c-5 -6 -12 -32 -16 -58 -6 -40 -4 -48 13 -57 27 -14 52
-14 52 0 0 6 11 20 25 31 27 21 32 42 13 55 -7 4 -13 15 -13 23 0 18 -60 23
-74 6z"/>
<path d="M3248 2083 c7 -3 16 -2 19 1 4 3 -2 6 -13 5 -11 0 -14 -3 -6 -6z"/>
<path d="M2950 1929 c0 -18 35 -53 47 -48 4 2 -4 17 -19 34 -20 21 -28 25 -28
14z"/>
<path d="M2699 1895 c18 -8 41 -15 50 -15 9 1 -2 7 -24 15 -52 19 -70 18 -26
0z"/>
<path d="M3118 1843 c7 -3 16 -2 19 1 4 3 -2 6 -13 5 -11 0 -14 -3 -6 -6z"/>
<path d="M1883 1650 c-2 -21 16 -25 51 -11 18 7 16 9 -14 19 -18 7 -34 12 -34
12 -1 0 -2 -9 -3 -20z"/>
<path d="M2040 1648 l-35 -19 55 7 c30 4 64 10 75 15 18 7 17 8 -7 8 -14 1
-32 3 -40 5 -7 2 -29 -5 -48 -16z"/>
<path d="M5775 3534 c-15 -37 -13 -54 9 -54 25 0 34 -21 24 -62 -7 -32 -5 -44
7 -58 14 -16 14 -22 0 -64 -13 -37 -14 -51 -4 -62 10 -12 14 -12 26 6 8 11 24
20 37 20 37 0 37 10 -1 47 -34 31 -35 35 -20 50 11 11 30 16 53 15 41 -3 74 5
74 19 0 5 -11 9 -25 9 -48 0 -95 35 -95 71 0 4 14 15 30 24 42 22 37 38 -19
58 -68 24 -79 22 -96 -19z"/>
<path d="M5085 3476 c-16 -29 -17 -39 -7 -61 17 -37 15 -56 -10 -82 -21 -22
-21 -23 -3 -43 22 -24 35 -26 35 -5 0 8 9 24 21 36 17 17 19 25 11 43 -19 38
-20 51 -3 79 14 25 14 28 -5 47 l-20 21 -19 -35z"/>
<path d="M6046 3476 c-22 -46 -20 -71 6 -88 21 -14 21 -15 5 -48 -22 -42 -21
-47 4 -60 16 -9 28 -9 50 0 33 14 36 30 13 66 -15 23 -15 26 0 43 9 9 16 31
16 48 0 25 -7 36 -34 52 -18 12 -36 21 -39 21 -2 0 -12 -15 -21 -34z"/>
<path d="M5321 3419 c-21 -28 -21 -32 -7 -48 20 -23 21 -80 1 -87 -20 -8 -19
-27 3 -47 24 -22 32 -21 32 2 0 11 6 26 14 33 11 12 11 17 0 33 -31 42 -8 104
39 106 16 1 13 3 -10 10 -18 5 -33 14 -33 19 0 19 -16 10 -39 -21z"/>
<path d="M5555 3234 l-27 -35 21 -23 c29 -31 26 -47 -14 -86 -42 -41 -43 -52
-8 -78 l26 -19 -21 -34 c-48 -76 -48 -76 -14 -112 28 -29 30 -35 22 -71 -5
-21 -13 -43 -19 -49 -24 -24 -11 -55 36 -90 27 -20 49 -34 51 -32 2 2 -1 20
-7 40 -7 28 -6 46 7 80 16 43 15 45 -6 68 -23 25 -31 98 -13 126 6 10 3 23
-10 40 -16 22 -17 32 -8 66 6 22 15 45 21 52 6 7 5 26 -3 52 -10 35 -9 44 8
74 17 27 18 37 8 50 -17 23 -19 22 -50 -19z"/>
<path d="M6061 3194 c-21 -31 -22 -34 -7 -56 21 -30 20 -51 -4 -73 -11 -10
-20 -24 -20 -32 0 -25 27 -25 52 0 19 19 23 32 20 58 -3 26 2 39 17 53 28 25
26 38 -7 63 l-28 21 -23 -34z"/>
<path d="M5340 3191 c0 -5 -12 -24 -26 -41 -23 -27 -25 -34 -15 -56 17 -38 14
-57 -19 -102 -35 -49 -37 -62 -10 -85 25 -22 25 -52 0 -100 -12 -21 -18 -46
-16 -55 6 -17 94 -72 116 -72 9 0 11 12 7 42 -4 31 0 50 15 78 l21 36 -32 31
c-39 40 -39 70 -1 113 30 34 37 50 21 50 -5 0 -16 17 -24 38 -13 33 -13 40 1
64 15 25 15 29 -3 48 -19 21 -35 26 -35 11z"/>
<path d="M5807 3154 c-18 -24 -17 -54 1 -54 7 0 32 56 32 73 0 14 -16 5 -33
-19z"/>
<path d="M6031 2916 c-14 -15 -21 -32 -18 -41 6 -15 53 -42 61 -34 2 2 6 24 8
49 4 54 -16 64 -51 26z"/>
<path d="M6060 2760 c-20 -15 -35 -18 -71 -14 -43 6 -46 4 -72 -29 -15 -20
-27 -40 -27 -44 0 -15 61 -73 76 -73 9 0 14 12 14 36 0 70 30 93 85 67 19 -9
37 -14 39 -12 3 3 8 24 12 47 6 37 4 42 -12 42 -11 0 -30 -9 -44 -20z"/>
<path d="M6083 2603 c-40 -27 -27 -56 45 -97 9 -5 12 8 12 53 0 67 -12 76 -57
44z"/>
<path d="M6117 2426 c-8 -8 -20 -28 -27 -45 -11 -28 -10 -33 11 -51 13 -10 27
-19 32 -20 4 0 7 29 7 65 0 36 -2 65 -4 65 -3 0 -11 -6 -19 -14z"/>
<path d="M4500 2290 c6 -11 15 -20 20 -20 6 0 10 9 10 20 0 13 -7 20 -20 20
-18 0 -19 -3 -10 -20z"/>
<path d="M731 2191 c-26 -11 -40 -21 -33 -25 7 -4 16 -5 21 -1 16 9 3 -36 -15
-56 -32 -35 -87 -12 -66 28 10 17 5 18 -66 20 -43 1 -113 6 -157 12 -44 6
-155 13 -248 17 l-167 7 0 -95 0 -95 43 -7 c71 -11 107 -26 100 -42 -7 -19
-75 -18 -114 1 l-29 16 2 -193 3 -193 33 -3 c18 -2 57 4 88 13 45 13 61 14 89
4 27 -10 43 -10 77 0 54 16 68 28 68 56 0 36 26 49 98 50 37 1 80 8 95 15 25
12 28 17 22 51 -7 43 6 52 63 44 46 -7 100 19 122 59 11 21 29 33 63 43 26 7
47 17 47 22 0 4 11 20 25 35 26 28 25 46 0 46 -8 0 -39 23 -70 52 -38 37 -55
60 -55 78 0 20 -2 22 -10 10 -5 -8 -10 -11 -10 -7 0 4 7 19 16 32 9 14 15 25
13 24 -2 0 -24 -8 -48 -18z m-343 -414 c7 -8 7 -19 -2 -34 -11 -21 -13 -22
-34 -7 -35 24 -28 44 19 53 4 0 11 -5 17 -12z m-243 -28 c4 -11 18 -25 31 -31
27 -13 31 -30 10 -47 -20 -17 -71 -10 -71 9 0 8 -6 25 -13 37 -6 12 -9 29 -6
37 9 23 41 20 49 -5z"/>
<path d="M4451 2128 c5 -18 9 -35 9 -38 0 -8 20 24 20 33 0 5 -4 5 -10 2 -5
-3 -10 3 -10 14 0 12 -4 21 -9 21 -6 0 -6 -12 0 -32z"/>
<path d="M535 1603 c-11 -3 -36 -18 -55 -33 -19 -15 -51 -31 -70 -35 -53 -11
-101 -51 -95 -78 9 -40 -7 -49 -101 -52 -70 -3 -101 -10 -151 -32 l-63 -28 3
-135 c2 -151 6 -157 72 -126 45 22 54 20 65 -9 10 -26 30 -37 85 -49 27 -6 32
-3 44 24 9 21 11 46 6 76 -9 61 4 74 71 74 58 0 66 10 44 51 -9 16 -6 22 19
37 38 21 41 53 6 72 -14 7 -25 19 -25 25 0 13 131 94 213 132 53 25 59 42 21
72 -26 20 -48 24 -89 14z"/>
<path d="M430 1000 c-11 -7 -12 -12 -3 -21 13 -13 33 -4 33 17 0 16 -9 18 -30
4z"/>
<path d="M645 997 c-12 -9 -14 -16 -7 -21 6 -3 16 3 22 14 13 24 10 25 -15 7z"/>
<path d="M50 972 c0 -5 7 -16 16 -23 14 -12 16 -11 13 5 -4 20 -29 35 -29 18z"/>
<path d="M2587 910 c3 -13 14 -20 29 -20 12 0 26 -5 30 -11 3 -6 17 -8 30 -5
17 5 30 -2 53 -26 l31 -33 0 28 c0 20 -5 27 -20 27 -11 0 -20 4 -20 9 0 11
-59 36 -67 28 -3 -4 -15 0 -27 8 -29 21 -45 19 -39 -5z"/>
<path d="M483 893 c-26 -17 -31 -43 -8 -43 15 0 39 35 33 49 -2 5 -13 2 -25
-6z"/>
<path d="M2844 901 c-2 -2 -4 -16 -4 -31 0 -31 39 -57 58 -38 14 14 62 -16 62
-38 0 -9 6 -14 13 -11 21 7 13 41 -12 53 -14 7 -30 25 -36 41 -9 23 -18 28
-44 28 -18 0 -35 -2 -37 -4z"/>
<path d="M3029 806 c7 -9 25 -16 40 -16 29 1 17 11 -29 25 -22 7 -23 6 -11 -9z"/>
<path d="M2776 781 c-9 -15 12 -61 28 -61 22 0 28 31 10 51 -19 21 -30 24 -38
10z"/>
<path d="M3102 757 c-12 -6 -22 -13 -22 -17 0 -17 44 -50 66 -50 14 0 39 -9
55 -21 24 -17 29 -18 29 -4 0 8 -11 21 -25 27 -14 6 -30 24 -37 39 -14 32 -34
40 -66 26z"/>
<path d="M2865 750 c-8 -12 17 -28 50 -32 20 -2 33 -11 40 -25 5 -13 15 -23
22 -23 7 0 13 -7 13 -15 0 -8 7 -15 15 -15 19 0 20 29 1 36 -8 3 -17 16 -20
30 -4 15 -14 24 -27 24 -11 0 -22 6 -25 13 -5 15 -61 21 -69 7z"/>
<path d="M3030 611 c0 -20 7 -34 19 -41 27 -14 29 -13 24 14 l-5 25 53 -15
c65 -17 69 -17 69 -4 0 6 -11 10 -24 10 -14 0 -27 4 -30 9 -3 5 -22 12 -42 15
-19 4 -42 10 -50 13 -10 4 -14 -3 -14 -26z"/>
<path d="M6116 618 c-10 -6 -35 -13 -55 -15 -20 -2 -79 -13 -131 -23 -52 -10
-135 -22 -185 -26 -49 -4 -79 -10 -66 -12 19 -3 21 -6 10 -14 -9 -6 15 -8 76
-4 83 5 88 4 60 -9 -16 -8 -40 -14 -52 -15 -13 0 -23 -3 -23 -8 0 -13 84 -8
93 6 4 6 18 12 30 11 12 0 16 -3 10 -6 -7 -2 -13 -8 -13 -12 0 -9 43 -6 76 4
31 10 38 -11 12 -31 -20 -14 -20 -15 -3 -9 11 4 28 8 37 9 10 1 21 5 24 9 4 4
12 7 18 7 6 0 3 -5 -7 -11 -28 -17 -2 -39 47 -40 37 0 39 -1 19 -11 -26 -12
-31 -38 -8 -38 27 0 16 -18 -15 -25 -22 -5 -37 -1 -56 14 -22 17 -41 21 -102
21 -71 0 -74 1 -59 18 24 26 8 39 -60 47 -45 5 -60 10 -57 20 4 9 -6 15 -28
20 -86 18 -111 27 -97 36 8 5 -35 6 -106 2 -144 -7 -177 -23 -49 -23 71 -1 85
-3 69 -12 -44 -26 -189 -15 -225 17 -20 18 -215 32 -224 16 -5 -8 15 -11 66
-12 40 -1 84 -4 98 -8 24 -7 24 -7 -9 -14 -18 -4 -50 -7 -70 -7 -20 0 -43 -5
-51 -10 -12 -8 110 -16 198 -13 6 1 12 -5 12 -13 0 -8 -6 -14 -14 -14 -8 0
-16 -7 -20 -15 -6 -15 15 -18 119 -16 38 1 39 0 15 -11 l-25 -11 30 -6 c28 -6
26 -7 -23 -19 -28 -8 -54 -18 -57 -22 -6 -9 46 -21 75 -18 8 0 39 0 69 0 45
-2 52 -4 42 -16 -10 -12 -3 -16 45 -22 31 -3 97 -4 145 -2 55 4 89 2 89 -4 0
-6 6 -8 14 -5 7 3 18 1 24 -5 7 -7 17 -6 32 2 17 9 19 14 9 26 -8 10 -37 14
-115 14 -90 0 -107 3 -123 19 -11 11 -36 22 -55 25 -119 19 -110 15 -90 37 9
10 15 21 13 22 -10 8 -88 27 -110 27 -23 1 -23 1 -4 12 24 14 37 16 132 21 40
2 70 0 67 -5 -3 -4 9 -8 25 -8 17 0 31 -4 31 -10 0 -5 -8 -10 -17 -10 -10 0
-25 -5 -33 -11 -11 -8 -8 -9 13 -4 19 4 26 2 22 -5 -3 -5 -1 -10 4 -10 6 0 11
5 11 10 0 6 24 10 53 9 37 0 46 -3 32 -9 -12 -4 -26 -14 -32 -22 -10 -11 -4
-13 30 -11 l42 2 -37 -16 c-21 -8 -38 -19 -38 -24 0 -4 50 -7 111 -6 82 1 112
-2 119 -12 6 -10 28 -12 96 -7 48 4 90 9 94 11 3 2 7 40 9 84 l2 81 -50 0
c-45 0 -49 2 -46 20 2 11 0 18 -5 15 -5 -3 -39 0 -75 6 -65 12 -68 20 -12 33
29 7 38 -9 10 -18 -31 -9 69 4 125 17 44 10 52 15 52 34 0 26 1 26 -24 11z"/>
<path d="M2820 610 c0 -5 9 -14 20 -20 22 -12 27 -1 8 18 -14 14 -28 16 -28 2z"/>
<path d="M3220 569 c0 -11 4 -18 10 -14 5 3 7 12 3 20 -7 21 -13 19 -13 -6z"/>
<path d="M6108 553 c-27 -7 -22 -23 7 -23 16 0 25 6 25 15 0 15 -2 16 -32 8z"/>
<path d="M2866 541 c-11 -17 32 -43 61 -37 15 3 35 2 43 -4 12 -7 10 -11 -10
-19 -14 -5 -19 -10 -11 -10 8 -1 11 -8 8 -21 -3 -11 -2 -22 3 -25 4 -3 11 5
14 18 3 12 12 30 20 40 14 18 16 18 48 1 39 -20 118 -94 118 -110 0 -15 52
-25 66 -13 14 11 24 1 24 -24 0 -13 -5 -17 -15 -13 -9 3 -15 0 -15 -10 0 -10
6 -14 14 -11 12 5 13 0 2 -31 -12 -35 -11 -37 17 -61 35 -29 57 -35 57 -15 0
8 -3 14 -8 14 -13 0 -36 63 -36 99 0 23 7 39 22 52 29 23 16 31 -58 34 -54 2
-62 6 -99 44 -22 22 -47 41 -56 41 -9 0 -27 11 -39 24 -30 29 -51 37 -64 24
-7 -7 -20 -5 -43 6 -36 18 -55 20 -63 7z"/>
<path d="M3678 500 c17 -16 56 -43 88 -60 65 -33 64 -33 64 -22 0 4 -22 19
-49 35 -28 15 -53 36 -56 47 -3 11 -12 17 -20 14 -7 -3 -16 -1 -20 5 -3 6 -13
11 -21 11 -11 0 -6 -10 14 -30z"/>
<path d="M3305 482 c17 -9 38 -15 48 -13 9 1 17 -2 17 -7 0 -5 25 -10 56 -10
76 -1 56 20 -22 23 -31 2 -59 7 -63 12 -3 4 -19 9 -36 10 l-30 1 30 -16z"/>
<path d="M4291 458 c5 -10 20 -18 32 -18 13 0 40 -9 62 -20 25 -13 59 -20 92
-20 29 0 53 -4 53 -10 0 -5 -24 -10 -52 -11 -53 0 -53 0 -23 -14 28 -12 63
-26 75 -30 24 -6 91 -18 118 -21 50 -5 72 -14 72 -30 0 -8 5 -14 10 -14 6 0
10 -6 10 -13 0 -8 6 -14 13 -15 17 -1 45 -8 105 -26 29 -8 52 -11 52 -5 0 5
-3 9 -7 10 -42 4 -145 40 -155 54 -4 5 -6 16 -3 22 6 17 -18 28 -101 51 -43
12 -69 24 -69 33 0 8 -11 23 -25 34 -51 41 -93 54 -182 57 -79 3 -85 2 -77
-14z"/>
<path d="M3526 425 c4 -8 10 -12 15 -9 11 6 2 24 -11 24 -5 0 -7 -7 -4 -15z"/>
<path d="M5945 430 c-8 -13 5 -13 25 0 13 8 13 10 -2 10 -9 0 -20 -4 -23 -10z"/>
<path d="M3355 420 c-3 -5 -1 -10 4 -10 6 0 11 5 11 10 0 6 -2 10 -4 10 -3 0
-8 -4 -11 -10z"/>
<path d="M3370 340 c0 -5 5 -10 10 -10 6 0 10 5 10 10 0 6 -4 10 -10 10 -5 0
-10 -4 -10 -10z"/>
<path d="M3748 343 c12 -2 30 -2 40 0 9 3 -1 5 -23 4 -22 0 -30 -2 -17 -4z"/>
<path d="M4135 338 c11 -6 29 -18 39 -27 19 -16 19 -16 1 10 -10 14 -28 26
-39 26 -21 2 -21 2 -1 -9z"/>
<path d="M3037 278 c3 -18 8 -35 10 -38 8 -8 53 -7 53 2 0 4 9 8 20 8 21 0 28
-24 10 -35 -18 -11 -11 -23 10 -18 11 3 25 14 31 24 5 11 16 19 24 19 28 0 17
15 -42 56 -19 14 -24 14 -45 0 -20 -13 -25 -13 -42 0 -30 21 -36 17 -29 -18z"/>
<path d="M4680 290 c0 -6 7 -10 15 -10 8 0 15 2 15 4 0 2 -7 6 -15 10 -8 3
-15 1 -15 -4z"/>
<path d="M4461 277 c24 -19 79 -44 79 -37 0 11 -52 40 -71 40 -7 0 -10 -1 -8
-3z"/>
<path d="M3580 250 c-32 -7 -33 -8 -12 -15 24 -8 28 -20 11 -31 -7 -4 -9 -22
-5 -48 6 -37 6 -39 -7 -22 -10 13 -16 15 -21 8 -16 -26 -68 -2 -58 27 3 8 -8
4 -26 -9 -28 -21 -41 -22 -92 -9 -8 2 -22 13 -32 24 -9 11 -17 15 -18 10 0 -6
14 -26 30 -44 25 -27 37 -32 64 -29 29 3 57 -10 56 -27 -1 -26 1 -29 9 -16 5
8 7 21 3 29 -4 11 -1 14 10 10 9 -4 20 -2 26 4 7 7 20 4 40 -11 17 -11 33 -21
37 -21 3 0 3 26 -1 59 -5 48 -3 62 11 79 11 12 24 18 34 14 14 -5 14 -3 2 11
-7 9 -16 16 -20 16 -3 -1 -22 -5 -41 -9z"/>
<path d="M3970 250 c0 -5 5 -10 11 -10 5 0 7 5 4 10 -3 6 -8 10 -11 10 -2 0
-4 -4 -4 -10z"/>
<path d="M6110 256 c0 -2 7 -6 15 -10 8 -3 15 -1 15 4 0 6 -7 10 -15 10 -8 0
-15 -2 -15 -4z"/>
<path d="M3508 243 c7 -3 16 -2 19 1 4 3 -2 6 -13 5 -11 0 -14 -3 -6 -6z"/>
<path d="M4032 239 c2 -7 10 -15 17 -17 8 -3 12 1 9 9 -2 7 -10 15 -17 17 -8
3 -12 -1 -9 -9z"/>
<path d="M4096 241 c-3 -4 6 -7 20 -5 35 3 43 14 11 14 -14 0 -28 -4 -31 -9z"/>
<path d="M3680 231 c0 -11 42 -43 48 -37 4 5 -35 46 -43 46 -3 0 -5 -4 -5 -9z"/>
<path d="M3980 222 c0 -5 7 -13 16 -16 10 -4 14 -1 12 6 -5 15 -28 23 -28 10z"/>
<path d="M5568 223 c7 -3 16 -2 19 1 4 3 -2 6 -13 5 -11 0 -14 -3 -6 -6z"/>
<path d="M5710 212 c0 -5 10 -19 21 -31 18 -19 19 -25 8 -32 -11 -7 -11 -9 3
-9 22 0 32 34 18 60 -10 19 -50 29 -50 12z"/>
<path d="M6120 193 c0 -12 -6 -24 -12 -26 -8 -4 -7 -6 3 -6 21 -1 34 28 19 43
-7 7 -10 3 -10 -11z"/>
<path d="M5278 193 c6 -2 18 -2 25 0 6 3 1 5 -13 5 -14 0 -19 -2 -12 -5z"/>
<path d="M4445 170 c-4 -6 3 -10 14 -10 25 0 27 6 6 13 -8 4 -17 2 -20 -3z"/>
<path d="M3804 142 c16 -19 28 -21 73 -19 30 2 56 0 59 -5 3 -4 1 -8 -5 -8 -6
0 -8 -7 -5 -15 6 -15 25 -21 23 -7 -4 25 4 32 39 32 36 1 37 1 13 14 -14 8
-31 12 -38 9 -7 -3 -13 -1 -13 5 0 11 -18 11 -37 -1 -14 -9 -95 -3 -114 8 -8
5 -5 -1 5 -13z"/>
<path d="M4037 126 c-4 -10 4 -18 24 -25 18 -6 29 -6 29 0 0 5 -7 9 -15 9 -8
0 -14 5 -12 11 3 17 -20 22 -26 5z"/>
<path d="M3250 72 c0 -6 -7 -9 -15 -6 -28 11 -5 -24 29 -44 44 -26 239 -32
230 -7 -4 8 -15 15 -25 15 -14 0 -19 7 -19 28 0 19 -3 23 -9 13 -5 -7 -6 -22
-4 -32 4 -15 0 -19 -21 -19 -14 0 -26 4 -26 9 0 13 -52 21 -71 10 -12 -6 -24
-1 -43 18 -14 14 -26 21 -26 15z"/>
<path d="M4163 52 c21 -23 77 -46 77 -32 0 5 8 11 18 13 11 3 8 5 -9 6 -15 0
-44 8 -65 17 l-39 16 18 -20z"/>
<path d="M5602 59 c2 -7 10 -15 17 -17 8 -3 12 1 9 9 -2 7 -10 15 -17 17 -8 3
-12 -1 -9 -9z"/>
<path d="M3644 52 c18 -30 82 -50 154 -49 73 1 81 4 61 24 -7 7 -21 8 -43 2
-40 -12 -123 -1 -155 20 -15 9 -22 11 -17 3z"/>
<path d="M4314 46 c-28 -21 -14 -27 30 -12 28 10 34 15 21 20 -23 9 -29 8 -51
-8z"/>
<path d="M4420 51 c0 -5 5 -13 10 -16 6 -3 10 -2 10 4 0 5 -4 13 -10 16 -5 3
-10 2 -10 -4z"/>
<path d="M6028 33 c7 -3 16 -2 19 1 4 3 -2 6 -13 5 -11 0 -14 -3 -6 -6z"/>
</g>
</svg>
